<svg viewBox="0 0 32 33" xmlns="http://www.w3.org/2000/svg" xml:space="preserve" fill-rule="evenodd" clip-rule="evenodd" stroke-linejoin="round" stroke-miterlimit="2"><path d="M11.73 23.42c.47-.08 4.17-.4 6.76-3.49.82-.98 1.78-3.58 1.93-2.1.8 8.2-8.11 13.95-11.13 12.69a16 16 0 0 1-7.9-8.05c-.1-.24-1.34-3.2-.93-3.02.38.17 3.87 4.49 11.27 3.97M4.94 7.22c0 1.77-.06 3.7 1.47 6.94 1 2.13 3.96 5.71 8 6.02.97.08 3.23-.23 2.16.57-6.05 4.59-15.8.01-16.43-3.48-.59-3.18.69-9.1 5.12-13.12.26-.24.09.11-.03.68-.29 1.49-.25 1.84-.29 2.4m15.75-5.8.28-.05c2.55-.4 7.92 3.24 10.1 9.28.05.14.78 2.19.4 1.82-5.26-5.16-13.7-5.07-17.59-.87-1.15 1.25-2.1 3.87-2.25 2.78-.68-4.7 2.75-11.04 9.06-12.96m.98 7.86c2.05.13 5.12.24 8.84 3.31 1.8 1.48 1.68 3.47 1.15 6.64a14.5 14.5 0 0 1-2.56 5.92c-2 2.71-2.38 2.78-2.34 2.51.26-1.7 1.4-6.3-2.24-11.54-1.47-2.12-4.07-4.2-7.15-4.33-.67-.03-3.38.3-1.35-.95 2.3-1.4 4.07-1.5 5.65-1.56m4.7 14.66c-.03 5.08-1.24 5.86-6.11 7.5-3.62 1.2-9.09.11-8.58-.12.22-.1.27.01 1.74-.72 6-2.97 9.93-10.47 6.67-15.96-.03-.05-1.63-2.31.23-1.28 5.85 3.26 6.01 10.15 6.05 10.58M20.32.57c0 .19-.09.12-.41.24-.6.23-4.1 1.51-6.45 4.82-.9 1.26-3.23 4.54-2.59 8.9.39 2.67 2.88 5.02 1.3 4.33C5.9 16.07 4.55 7.19 6.57 3.52 7.3 2.16 12.74-1.37 20.32.57"/></svg>