<svg xmlns="http://www.w3.org/2000/svg" viewBox="0 0 32 32"><path d="M0 0h32v32H0z" fill="none"/><path d="M29.92.01a2.07 2.07 0 0 1 .01 4.15H2.07a2.08 2.08 0 1 1 0-4.16zM11.35 9.29c-1.15 0-2.07.92-2.07 2.07s.92 2.08 2.07 2.08h18.58a2.07 2.07 0 0 0 1.46-3.55c-.4-.4-.92-.6-1.46-.6zM-.01 29.95a2.07 2.07 0 1 0 4.15 0V11.37a2.07 2.07 0 1 0-4.15 0zm11.36-11.38a2.07 2.07 0 0 0-2.07 2.08c0 1.14.92 2.07 2.07 2.07h18.58a2.07 2.07 0 1 0 0-4.15zm0 9.28a2.07 2.07 0 0 0 0 4.15h18.58a2.07 2.07 0 0 0 1.46-3.54c-.4-.4-.92-.61-1.46-.61z"/></svg>