<svg xmlns="http://www.w3.org/2000/svg" viewBox="0 0 32 32"><path d="M0 0h32v32H0z" fill="none"/><path d="M21.72 15.03q4.56 1.06 6.4 2.58 2.64 2.14 2.64 5.56 0 3.61-2.9 5.97Q24.3 32 17.5 32H1.24v-.87q2.22 0 3-.42.8-.4 1.12-1.07.32-.66.32-3.26V5.62q0-2.6-.32-3.27T4.24 1.27t-3-.4V0h15.34q5.5 0 7.79.98t3.6 2.93 1.33 4.14q0 2.31-1.68 4.11-1.67 1.81-5.9 2.87m-8.59-.63q3.35 0 4.95-.76 1.59-.76 2.44-2.12.85-1.37.85-3.5t-.84-3.48-2.4-2.06-5-.69zm0 1.84V26.5l-.02 1.18q0 1.28.65 1.93t1.92.64q1.89 0 3.48-.83 1.6-.84 2.45-2.44.84-1.59.84-3.55 0-2.24-1.03-4.02-1.04-1.78-2.86-2.49-1.82-.7-5.43-.68"/></svg>