<svg viewBox="0 0 32 32" xmlns="http://www.w3.org/2000/svg" xml:space="preserve" fill-rule="evenodd" clip-rule="evenodd" stroke-linejoin="round" stroke-miterlimit="2"><path d="M6 16v15.22c0 .43-.35.78-.78.78H.78c-.43 0-.78-.35-.78-.78V.78C0 .35.35 0 .78 0h4.44c.43 0 .78.35.78.78v15.134c.01-.258.109-.506.282-.701l7.029-7.873q.225-.338.675-.338t.731.338q.282.336.282.786v15.748c.011.289-.09.57-.282.786a.9.9 0 0 1-.731.338q-.393 0-.675-.338l-7.029-7.872A1.2 1.2 0 0 1 6 16m20 0q0 .45-.282.788l-7.029 7.872q-.282.338-.675.338a.9.9 0 0 1-.731-.338 1.12 1.12 0 0 1-.282-.786V8.126q0-.45.282-.786a.9.9 0 0 1 .731-.338q.45 0 .675.338l7.029 7.873c.173.195.272.443.282.701V.78c0-.43.35-.78.78-.78h4.44c.43 0 .78.35.78.78v30.44c0 .43-.35.78-.78.78h-4.44c-.43 0-.78-.35-.78-.78z"/></svg>