<?xml version="1.0" encoding="UTF-8" standalone="no"?>
<!DOCTYPE svg PUBLIC "-//W3C//DTD SVG 1.1//EN" "http://www.w3.org/Graphics/SVG/1.1/DTD/svg11.dtd">
<svg width="100%" height="100%" viewBox="0 0 32 32" version="1.1" xmlns="http://www.w3.org/2000/svg" xmlns:xlink="http://www.w3.org/1999/xlink" xml:space="preserve" xmlns:serif="http://www.serif.com/" style="fill-rule:evenodd;clip-rule:evenodd;stroke-linejoin:round;stroke-miterlimit:2;">
    <path d="M9.01,16C9.004,16.3 8.91,16.563 8.73,16.79L1.7,24.66C1.525,24.861 1.276,24.983 1.01,25C0.71,25 0.467,24.887 0.28,24.66C0.087,24.433 -0.006,24.17 0,23.87L0,8.13C0,7.83 0.094,7.563 0.28,7.33C0.458,7.112 0.729,6.99 1.01,7L1.02,7C1.32,7 1.547,7.113 1.7,7.34L8.73,15.21C8.911,15.422 9.004,15.665 9.011,15.941L9.011,3.497C9.011,1.567 10.578,0 12.508,0L19.503,0C21.433,0 23,1.567 23,3.497L23,15.831C23.029,15.6 23.119,15.393 23.27,15.21L30.3,7.34C30.493,7.113 30.723,7 30.99,7C31.273,6.992 31.544,7.118 31.72,7.34C31.913,7.567 32.006,7.83 32,8.13L32,23.87C32,24.17 31.906,24.437 31.72,24.67C31.542,24.888 31.271,25.01 30.99,25L30.98,25C30.685,24.997 30.461,24.884 30.31,24.66L23.27,16.8C23.119,16.611 23.029,16.401 23,16.169L23,28.503C23,30.433 21.433,32 19.503,32L12.508,32C10.578,32 9.011,30.433 9.011,28.503L9.01,16ZM13.011,4L13.011,28L19,28L19,4L13.011,4Z"/>
</svg>
