<?xml version="1.0" encoding="UTF-8" standalone="no"?>
<!DOCTYPE svg PUBLIC "-//W3C//DTD SVG 1.1//EN" "http://www.w3.org/Graphics/SVG/1.1/DTD/svg11.dtd">
<svg width="100%" height="100%" viewBox="0 0 32 32" version="1.1" xmlns="http://www.w3.org/2000/svg" xmlns:xlink="http://www.w3.org/1999/xlink" xml:space="preserve" xmlns:serif="http://www.serif.com/" style="fill-rule:evenodd;clip-rule:evenodd;stroke-linejoin:round;stroke-miterlimit:2;">
    <g transform="matrix(1,0,0,1,-0.000187,0)">
        <path d="M9,15.914L9,0.78C9,0.35 9.35,-0 9.78,-0L14.22,-0C14.65,-0 15,0.35 15,0.78L15,31.22C15,31.65 14.65,32 14.22,32L9.78,32C9.35,32 9,31.65 9,31.22L9,16C9,16.3 8.906,16.562 8.718,16.788L1.689,24.66C1.501,24.885 1.276,24.998 1.014,24.998C0.714,24.998 0.47,24.885 0.283,24.66C0.091,24.444 -0.01,24.163 0.001,23.874L0.001,8.126C0.001,7.826 0.095,7.564 0.283,7.34C0.47,7.114 0.714,7.002 1.014,7.002C1.314,7.002 1.539,7.114 1.689,7.34L8.718,15.213C8.891,15.408 8.99,15.656 9,15.914ZM23,16L23,31.22C23,31.65 22.65,32 22.22,32L17.78,32C17.35,32 17,31.65 17,31.22L17,0.78C17,0.35 17.35,-0 17.78,-0L22.22,-0C22.65,-0 23,0.35 23,0.78L23,15.914C23.01,15.656 23.109,15.408 23.282,15.213L30.311,7.34C30.461,7.114 30.686,7.002 30.986,7.002C31.286,7.002 31.53,7.114 31.717,7.34C31.905,7.564 31.999,7.826 31.999,8.126L31.999,23.874C32.01,24.163 31.909,24.444 31.717,24.66C31.53,24.885 31.286,24.998 30.986,24.998C30.724,24.998 30.499,24.885 30.311,24.66L23.282,16.788C23.094,16.562 23,16.3 23,16Z"/>
    </g>
</svg>
