<svg viewBox="0 0 32 32" xmlns="http://www.w3.org/2000/svg" xml:space="preserve" fill-rule="evenodd" clip-rule="evenodd" stroke-linejoin="round" stroke-miterlimit="2"><path d="M32 4.16v23.68c0 2.3-1.86 4.16-4.16 4.16H4.16A4.16 4.16 0 0 1 0 27.84V4.16C0 1.86 1.86 0 4.16 0h23.68C30.14 0 32 1.86 32 4.16m-28 0v23.68q.01.15.16.16h23.68q.15-.01.16-.16V16q0 .45-.28.79l-7.03 7.87A1 1 0 0 1 20 25a.9.9 0 0 1-.73-.34q-.3-.34-.28-.79V8.13q0-.45.28-.8A.9.9 0 0 1 20 7h.01q.45 0 .68.34l7.03 7.87q.27.32.28.74V4.16a.16.16 0 0 0-.16-.16H4.16a.16.16 0 0 0-.16.16M4 16q0-.45.28-.79l7.03-7.87Q11.61 7 12 7a.9.9 0 0 1 .73.34q.3.34.28.79v15.74q0 .45-.28.8A.9.9 0 0 1 12 25h-.01a.8.8 0 0 1-.67-.34L4.28 16.8Q4 16.45 4 16"/></svg>