<svg viewBox="0 0 32 32" xmlns="http://www.w3.org/2000/svg" xml:space="preserve" fill-rule="evenodd" clip-rule="evenodd" stroke-linejoin="round" stroke-miterlimit="2"><path d="M9 15.91V.78c0-.43.35-.78.78-.78h4.44c.43 0 .78.35.78.78v30.44c0 .43-.35.78-.78.78H9.78a.8.8 0 0 1-.78-.78V16q0 .45-.28.79l-7.03 7.87A1 1 0 0 1 1 25a.9.9 0 0 1-.73-.34Q0 24.32 0 23.87V8.13q0-.46.28-.79A.9.9 0 0 1 1.01 7q.45 0 .68.34l7.03 7.87q.26.31.28.7M23 16v15.22c0 .43-.35.78-.78.78h-4.44a.8.8 0 0 1-.78-.78V.78c0-.43.35-.78.78-.78h4.44c.43 0 .78.35.78.78v15.13q.01-.39.28-.7l7.03-7.87A.8.8 0 0 1 31 7q.45 0 .73.34t.28.79v15.74q0 .45-.28.79A.9.9 0 0 1 31 25a1 1 0 0 1-.68-.34l-7.03-7.87A1.2 1.2 0 0 1 23 16"/></svg>