<svg viewBox="0 0 32 32" xmlns="http://www.w3.org/2000/svg" xml:space="preserve" fill-rule="evenodd" clip-rule="evenodd" stroke-linejoin="round" stroke-miterlimit="2"><path d="m6.2 16 4.34-7.49A6 6 0 0 1 10 6a6 6 0 1 1 11.45 2.51l2.77 4.8a11 11 0 0 1-5.52 3.36L16 11.99l-4.25 7.35A14 14 0 0 0 16 20c4.41 0 8.36-2.04 10.93-5.25a2 2 0 0 1 3.12 2.5 18 18 0 0 1-20.34 5.62l-3.54 6.11a3 3 0 0 1-1.26 1.18L1.45 31.9A1 1 0 0 1 0 31v-3.46a3 3 0 0 1 .4-1.5l3.75-6.49a18 18 0 0 1-2.2-2.3 2 2 0 0 1 .31-2.81 2 2 0 0 1 2.81.31q.54.66 1.14 1.26zm17.61 9.5q3.06-1.24 5.56-3.31l2.22 3.84q.4.7.41 1.5V31a1 1 0 0 1-1.45.9l-3.46-1.74a3 3 0 0 1-1.26-1.18zM16 8a2 2 0 1 0 0-4 2 2 0 0 0 0 4" fill-rule="nonzero"/></svg>