<svg viewBox="0 0 32 33" xmlns="http://www.w3.org/2000/svg" xml:space="preserve" fill-rule="evenodd" clip-rule="evenodd" stroke-linejoin="round" stroke-miterlimit="2"><path d="M32 0v18H0V8h8V0zM6 0v6H0zm24.25 30.46A3.6 3.6 0 0 1 27.31 32q-1.24 0-2.23-.46a5 5 0 0 1-1.67-1.25 6 6 0 0 1-1.03-1.89c-.5-1.53-.5-3.2 0-4.73q.36-1.1 1.03-1.92a4.8 4.8 0 0 1 3.9-1.75q.82.02 1.6.27a4.3 4.3 0 0 1 2.92 3.78H29.6a2.6 2.6 0 0 0-.84-1.44q-.6-.5-1.44-.5-.81 0-1.37.34-.56.3-.9.9a6.2 6.2 0 0 0-.5 4.1q.14.68.5 1.24.35.54.92.88.54.32 1.33.32 1.18 0 1.83-.63a3 3 0 0 0 .75-1.84H27.5v-1.88H32v6.2h-1.52zM2.53 27.94q0 .56.22.98.21.4.57.65t.84.37a4 4 0 0 0 1.75.06q.39-.06.75-.22.34-.15.58-.44.23-.28.23-.71a1 1 0 0 0-.3-.76q-.31-.3-.81-.48a8 8 0 0 0-1.14-.34 31 31 0 0 1-2.57-.71 5 5 0 0 1-1.13-.6q-.5-.37-.81-.93-.3-.55-.31-1.34 0-.89.4-1.53.38-.66 1.01-1.09.64-.43 1.44-.64a6 6 0 0 1 1.6-.21q.92 0 1.78.2t1.52.65T9.21 22t.4 1.7H7.06q-.03-.52-.22-.86-.2-.33-.51-.53a2 2 0 0 0-.72-.27 5 5 0 0 0-1.53-.02q-.3.07-.57.23-.25.15-.42.4-.18.25-.17.61 0 .33.13.55.15.21.53.38.39.18 1.08.36l2.73.68q.58.17 1.17.54.58.36 1 .98.43.63.43 1.59 0 .77-.32 1.46a3 3 0 0 1-.94 1.16 5 5 0 0 1-1.54.77q-.93.27-2.14.27-1 0-1.9-.23a5 5 0 0 1-1.64-.73A4 4 0 0 1 .4 29.77a4 4 0 0 1-.4-1.83zm14.8 4.1h-2.75l-3.58-12h2.5l2.46 8.44H16l2.5-8.44H21z"/></svg>