<svg viewBox="0 0 32 32" xmlns="http://www.w3.org/2000/svg" xml:space="preserve" fill-rule="evenodd" clip-rule="evenodd" stroke-linejoin="round" stroke-miterlimit="2"><path d="M32 0v18H0V8h8V0zM6 0v6H0zm4 20h2.58l4.95 8.06h.04V20H20v12h-2.6l-4.93-8.04h-.04V32H10zM0 20h4.53q.96-.02 1.6.33a3.3 3.3 0 0 1 1.68 2.09c.25.93.25 1.91 0 2.84a3.4 3.4 0 0 1-1.68 2.1q-.63.33-1.6.34H2.21V32H0zm2.2 5.66 1.72-.02q.39 0 .72-.05.35-.07.64-.27.27-.24.42-.55.15-.34.16-.93 0-.57-.16-.9a1.2 1.2 0 0 0-.42-.56q-.29-.2-.62-.25a3 3 0 0 0-.74-.07H2.21zm28.05 4.8A3.6 3.6 0 0 1 27.31 32q-1.24 0-2.23-.46a5 5 0 0 1-1.67-1.25 6 6 0 0 1-1.03-1.89c-.5-1.53-.5-3.2 0-4.73q.36-1.1 1.03-1.92a4.8 4.8 0 0 1 3.9-1.75q.82.02 1.6.27a4.3 4.3 0 0 1 2.92 3.78H29.6a2.6 2.6 0 0 0-.84-1.44q-.6-.5-1.44-.5-.81 0-1.37.34-.56.3-.9.9a6.2 6.2 0 0 0-.5 4.1q.14.68.5 1.24.35.54.92.88.54.32 1.33.32 1.18 0 1.83-.63a3 3 0 0 0 .75-1.84H27.5v-1.88H32v6.2h-1.52z"/></svg>