<svg viewBox="0 0 32 32" xmlns="http://www.w3.org/2000/svg" xml:space="preserve" fill-rule="evenodd" clip-rule="evenodd" stroke-linejoin="round" stroke-miterlimit="2"><path d="M32 0v18H0V8h8V0zM6 0v6H0zM0 20h4.53q.96-.02 1.6.33a3.3 3.3 0 0 1 1.68 2.09c.25.93.25 1.91 0 2.84a3.4 3.4 0 0 1-1.68 2.1q-.63.33-1.6.34H2.21V32H0zm2.2 5.66 1.72-.02q.39 0 .72-.05.35-.07.64-.27.27-.24.42-.55.15-.34.16-.93 0-.57-.16-.9a1.2 1.2 0 0 0-.42-.56q-.29-.2-.62-.25a3 3 0 0 0-.74-.07H2.21zM24 20h8v2.22h-5.5v2.77h4.77v2.05H26.5V32H24zm-13 0h4.87q1.09 0 2.04.37.93.38 1.63 1.1.68.75 1.07 1.86.39 1.1.39 2.6 0 1.31-.32 2.42a6 6 0 0 1-.95 1.92q-.64.8-1.6 1.27t-2.26.46H11zm2.48 9.78h2.22q.54 0 1.04-.18.51-.19.9-.62.4-.43.64-1.11t.24-1.69q0-.9-.17-1.63t-.55-1.26a2.4 2.4 0 0 0-1-.8 4 4 0 0 0-1.54-.27h-1.78z"/></svg>