<?xml version="1.0" encoding="UTF-8"?>
<!DOCTYPE svg PUBLIC "-//W3C//DTD SVG 1.1//EN" "http://www.w3.org/Graphics/SVG/1.1/DTD/svg11.dtd">
<svg version="1.1" xmlns="http://www.w3.org/2000/svg" xmlns:xlink="http://www.w3.org/1999/xlink" x="0" y="0" width="32" height="32" viewBox="0, 0, 32, 32">
  <g id="Background">
    <rect x="0" y="0" width="32" height="32" fill="#000000" fill-opacity="0"/>
  </g>
  <g id="Layer_1">
    <path d="M16,3.5 C20.488,3.5 24.081,5.559 26.697,7.998 C29.297,10.42 31.035,13.321 31.863,15.314 C32.046,15.754 32.046,16.246 31.863,16.686 C31.035,18.679 29.297,21.575 26.697,24.002 C24.081,26.446 20.488,28.5 16,28.5 C11.512,28.5 7.919,26.441 5.303,24.002 C2.703,21.58 0.965,18.679 0.137,16.686 C-0.046,16.246 -0.046,15.754 0.137,15.314 C0.965,13.321 2.703,10.425 5.303,7.998 C7.919,5.554 11.512,3.5 16,3.5 z M16,7.5 C13.056,7.5 10.383,8.725 8.033,10.921 C6.496,12.382 5.182,14.092 4.247,16 C5.081,17.98 6.572,19.553 8.03,21.076 C10.387,23.274 13.06,24.5 16,24.5 C18.944,24.5 21.617,23.275 23.967,21.079 C25.504,19.618 26.818,17.908 27.753,16 C26.918,14.02 25.428,12.447 23.97,10.923 C21.613,8.726 18.94,7.5 16,7.5 z M16,10 C19.312,10 22,12.688 22,16 C22,19.312 19.312,22 16,22 C12.688,22 10,19.312 10,16 C10,12.688 12.688,10 16,10 z" fill="#000000"/>
  </g>
</svg>
