<svg xmlns="http://www.w3.org/2000/svg" viewBox="0 0 32 32"><path d="M0 0h32v32H0z" fill="none"/><path d="M31 0a1 1 0 0 1 1 1v30a1 1 0 0 1-1 1H1a1 1 0 0 1-1-1V1a1 1 0 0 1 1-1zM10 26H3a1 1 0 0 0-1 1v2a1 1 0 0 0 1 1h7a1 1 0 0 0 1-1v-2a1 1 0 0 0-1-1M30 2H13v28h17zM10 20H3a1 1 0 0 0-1 1v2a1 1 0 0 0 1 1h7a1 1 0 0 0 1-1v-2a1 1 0 0 0-1-1m0-6H3a1 1 0 0 0-1 1v2a1 1 0 0 0 1 1h7a1 1 0 0 0 1-1v-2a1 1 0 0 0-1-1m0-6H3a1 1 0 0 0-1 1v2a1 1 0 0 0 1 1h7a1 1 0 0 0 1-1V9a1 1 0 0 0-1-1m0-6H3a1 1 0 0 0-1 1v2a1 1 0 0 0 1 1h7a1 1 0 0 0 1-1V3a1 1 0 0 0-1-1"/></svg>