<svg xmlns="http://www.w3.org/2000/svg" viewBox="0 0 32 32"><path d="M0 0h32v32H0z" fill="none"/><path d="M2.16 7.66c-.18.42-.1.15-.16.84v16a3 3 0 0 0 3 3h22c.69-.07.42.02.84-.16-.4 1.37-1.48 2.02-2.84 2.16H3a3 3 0 0 1-3-3v-16c.07-1.53.83-2.28 2.16-2.84M27.04 25.5a2.5 2.5 0 0 0 2.35-1.73l2.48-7.62a2.6 2.6 0 0 0-.34-2.29 2.5 2.5 0 0 0-2.01-1.05H9.92c-1.06 0-2 .7-2.35 1.73L5.1 22.16a2.6 2.6 0 0 0 .34 2.29 2.5 2.5 0 0 0 2.01 1.05zM5.22 13.74a5 5 0 0 1 4.7-3.47h18.9v-.85a3.35 3.35 0 0 0-3.3-3.38h-6.07q-.55 0-1-.34l-1.98-1.52a3.3 3.3 0 0 0-1.99-.68H7.31A3.35 3.35 0 0 0 4 6.89v10.58z"/></svg>