<svg xmlns="http://www.w3.org/2000/svg" viewBox="0 0 32 32"><path d="M0 0h32v32H0z" fill="none"/><path d="m13.9 16.17 6.05 8.97q1.5 2.23 2.14 2.71t1.51.57v.6H12.92v-.6q1.28-.1 1.65-.38.37-.3.37-.71 0-.3-.11-.52-.23-.49-1.13-1.81l-3.2-4.74-3.35 4.1q-1.5 1.85-1.5 2.51 0 .47.39.88.38.4 1.14.58.34.1 1.4.1v.6H.14v-.6q1.44-.21 2.27-.78 1.08-.74 3.02-3.1l4.35-5.3-5.58-8.2Q2.84 9.03 2.64 8.8q-.44-.53-.86-.76-.41-.22-1.16-.33v-.6H11.5v.6h-.55q-.94 0-1.31.3t-.37.75q0 .35.11.61l1.12 1.68 2.71 4.14 2.31-2.83q1.78-2.18 1.78-3.05 0-.44-.25-.81t-.72-.58-1.45-.21v-.6h8.06v.6q-.95.01-1.53.23t-1.25.82q-.42.38-2.1 2.4zM30 2.97 26.01 4.8l.14.3q.59-.26 1-.26.25 0 .44.13.2.13.27.32.07.18.07.93v5.6q0 1.03-.1 1.3-.1.29-.4.45-.3.15-.99.15h-.29v.3h5.7v-.3h-.25q-.61 0-.9-.17-.27-.17-.36-.45t-.09-1.27V2.98z"/></svg>