<svg xmlns="http://www.w3.org/2000/svg" viewBox="0 0 32 32">
    <path d="M21.33 16q0-2.2-1.56-3.77A5 5 0 0 0 16 10.67q-2.2 0-3.77 1.56A5 5 0 0 0 10.67 16q0 2.2 1.56 3.77A5 5 0 0 0 16 21.33q2.2 0 3.77-1.56A5 5 0 0 0 21.33 16M32 13.73v4.62a1 1 0 0 1-.17.48.6.6 0 0 1-.41.27l-3.86.59q-.39 1.12-.81 1.9.73 1.03 2.23 2.87.2.25.2.52a.7.7 0 0 1-.18.48q-.56.77-2.06 2.25-1.5 1.47-1.96 1.48-.26 0-.54-.19l-2.88-2.25q-.9.48-1.9.8a34 34 0 0 1-.6 3.87q-.14.58-.75.58H13.7a1 1 0 0 1-.51-.18.6.6 0 0 1-.24-.44l-.59-3.84q-1.02-.33-1.87-.77L7.54 29a.8.8 0 0 1-.52.19.7.7 0 0 1-.52-.23 28 28 0 0 1-3.44-3.5.8.8 0 0 1 .02-.96q.32-.44 1.07-1.39t1.12-1.46a10 10 0 0 1-.85-2.07L.6 19.02a.7.7 0 0 1-.43-.26 1 1 0 0 1-.17-.49v-4.62a1 1 0 0 1 .17-.48q.14-.22.4-.27l3.87-.59q.3-.96.81-1.91-.84-1.2-2.23-2.88a1 1 0 0 1-.2-.5q0-.21.18-.48.54-.75 2.05-2.24t1.97-1.49a1 1 0 0 1 .54.21l2.88 2.23q.9-.48 1.9-.8.32-2.82.6-3.87.15-.58.75-.58h4.62q.3 0 .51.18t.24.44l.59 3.84q1.02.33 1.87.77L24.48 3q.21-.2.5-.19a.8.8 0 0 1 .52.21 29 29 0 0 1 3.44 3.54q.14.17.14.46a1 1 0 0 1-.16.48q-.32.44-1.07 1.39t-1.12 1.46q.54 1.05.85 2.05l3.82.58q.27.04.43.26.17.2.17.49"/>
</svg>
