<svg xmlns="http://www.w3.org/2000/svg" viewBox="0 0 32 32">
    <path d="m31.9 17.45-2.52-10.1a4.9 4.9 0 0 0-6.3-3.46l-.84.29a.9.9 0 0 0-.56 1.12l.28.84a.9.9 0 0 0 1.12.57l.73-.25A2.22 2.22 0 0 1 26.8 8l2.13 8.55a14.7 14.7 0 0 0-10.9.8h-4.05a14.5 14.5 0 0 0-10.9-.8L5.22 8a2.2 2.2 0 0 1 1.14-1.43c.56-.3 1.23-.3 1.84-.1l.73.25a.9.9 0 0 0 1.12-.57l.28-.84a.9.9 0 0 0-.56-1.12L8.9 3.9a4.9 4.9 0 0 0-6.29 3.45L.1 17.45q-.1.42-.1.86v3.9a6.4 6.4 0 0 0 6.4 6.33h2.07a6.4 6.4 0 0 0 6.38-5.86l.16-2.15H17l.16 2.15a6.4 6.4 0 0 0 6.37 5.86h2.07c3.53 0 6.4-2.84 6.4-6.33v-3.9q0-.45-.1-.86M11.3 22.4a2.8 2.8 0 0 1-2.83 2.57H6.4a2.84 2.84 0 0 1-2.85-2.77v-2.09q1.96-.69 4.04-.72 2 0 3.88.73zm17.15-.2a2.8 2.8 0 0 1-2.85 2.77h-2.07a2.8 2.8 0 0 1-2.83-2.57l-.17-2.28q1.88-.72 3.89-.73c1.6 0 3.02.36 4.03.73z"/>
</svg>
