<svg xmlns="http://www.w3.org/2000/svg" viewBox="0 0 32 32"><path d="M0 0h32v32H0z" fill="none"/><path d="M6.85 16.53v5.56q0 1.38.15 1.72t.6.6 1.2.26h.59v.5H0v-.5h.6q.78 0 1.25-.28.35-.18.53-.63.15-.32.15-1.67v-11.8q0-1.39-.15-1.73t-.59-.6T.6 7.7H0v-.5h9.39v.5h-.6q-.78 0-1.26.28-.34.18-.54.63-.15.32-.15 1.67v5.09h6.35v-5.09q0-1.38-.15-1.72t-.6-.6-1.2-.26h-.58v-.5h9.37v.5h-.58q-.8 0-1.26.28-.34.18-.54.63-.15.32-.15 1.67V22.1q0 1.38.15 1.72t.6.6q.44.26 1.2.26h.58v.5h-9.37v-.5h.58q.8 0 1.26-.28.34-.18.54-.63.15-.32.15-1.67v-5.56zm22.07-9.7L22.3 9.87l.24.47q.96-.42 1.64-.42.42 0 .75.22.32.22.44.53.12.3.12 1.55v9.31q0 1.7-.17 2.16t-.66.73q-.5.26-1.65.26h-.47v.5H32v-.5h-.41q-1.02 0-1.48-.29-.47-.3-.61-.75t-.15-2.1V6.82z"/></svg>