<svg xmlns="http://www.w3.org/2000/svg" viewBox="0 0 32 32"><path d="M0 0h32v32H0z" fill="none"/><path d="M1 5H3.6A1 1 0 0 1 4.6 6V26A1 1 0 0 1 3.6 27H1A1 1 0 0 1 0 26V6A1 1 0 0 1 1 5ZM10.59 5H13.19A1 1 0 0 1 14.19 6V26A1 1 0 0 1 13.19 27H10.59A1 1 0 0 1 9.59 26V6A1 1 0 0 1 10.59 5ZM0.5 13.7H13.69A0.5 0.5 0 0 1 14.19 14.2V17.8A0.5 0.5 0 0 1 13.69 18.3H0.5A0.5 0.5 0 0 1 0 17.8V14.2A0.5 0.5 0 0 1 0.5 13.7ZM32 23.53L32 27L17.12 27L17.12 24.05L24.14 16.57Q25.59 14.99 26.28 13.81Q26.98 12.63 26.98 11.57L26.98 11.57Q26.98 10.13 26.25 9.3Q25.52 8.47 24.16 8.47L24.16 8.47Q22.7 8.47 21.86 9.48Q21.01 10.49 21.01 12.12L21.01 12.12L16.69 12.12Q16.69 10.14 17.64 8.5Q18.59 6.86 20.31 5.93Q22.04 5 24.23 5L24.23 5Q27.59 5 29.44 6.61Q31.3 8.22 31.3 11.16L31.3 11.16Q31.3 12.77 30.46 14.43Q29.63 16.1 27.6 18.33L27.6 18.33L22.67 23.53L32 23.53Z"/></svg>