<?xml version="1.0" encoding="UTF-8"?>
<!DOCTYPE svg PUBLIC "-//W3C//DTD SVG 1.1//EN" "http://www.w3.org/Graphics/SVG/1.1/DTD/svg11.dtd">
<svg version="1.1" xmlns="http://www.w3.org/2000/svg" xmlns:xlink="http://www.w3.org/1999/xlink" x="0" y="0" width="32" height="32" viewBox="0, 0, 32, 32">
  <g id="Background">
    <rect x="0" y="0" width="32" height="32" fill="#000000" fill-opacity="0"/>
  </g>
  <g id="Layer_1">
    <path d="M6.691,22.021 C6.695,22.56 6.69,23.108 6.84,23.63 Q6.99,23.97 7.42,24.22 Q7.85,24.47 8.59,24.47 L9.17,24.47 L9.17,24.95 L0,24.95 L0,24.47 L0.58,24.47 Q1.35,24.47 1.81,24.2 C2.125,23.943 2.045,24.066 2.139,23.906 L6.691,22.021 z M17.1,17.709 L12.88,19.457 L12.88,21.94 Q12.88,23.26 12.74,23.57 Q12.55,24.01 12.21,24.19 Q11.76,24.46 10.98,24.46 L10.41,24.46 L10.41,24.94 L19.57,24.94 L19.57,24.46 L19,24.46 Q18.26,24.46 17.82,24.21 Q17.38,23.96 17.24,23.62 Q17.1,23.29 17.1,21.94 L17.1,17.709 z M9.17,7.42 L0,7.42 L0,7.9 L0.58,7.9 Q1.31,7.89 1.75,8.14 Q2.19,8.39 2.33,8.73 Q2.47,9.07 2.47,10.41 L2.47,19.439 L6.69,17.691 L6.69,16.52 L9.529,16.515 L12.246,15.39 L6.7,15.39 L6.7,10.42 Q6.7,9.1 6.84,8.79 Q7.03,8.35 7.37,8.17 Q7.84,7.9 8.6,7.9 L9.17,7.9 L9.17,7.42 z M19.58,7.4 L10.42,7.4 L10.42,7.88 L10.99,7.88 Q11.74,7.88 12.17,8.13 Q12.6,8.38 12.75,8.72 Q12.9,9.06 12.9,10.4 L12.9,15.119 L17.1,13.38 L17.1,10.4 Q17.1,9.08 17.24,8.77 Q17.44,8.33 17.77,8.15 Q18.23,7.88 19,7.88 L19.58,7.88 L19.58,7.4 z M31.145,11.891 L27.447,13.423 C27.362,14.687 27.062,15.931 26.45,17.05 Q25.43,19 20.69,24.65 L20.69,24.95 L31.01,24.95 L32,19.88 L31.53,19.88 Q31.09,20.78 30.83,21.05 Q30.55,21.33 30.13,21.45 Q29.71,21.57 28.31,21.56 L24.52,21.56 Q28.92,17.28 30.22,14.89 C30.669,13.947 31.14,12.963 31.145,11.891 z M26.41,7.05 Q24.55,7.05 23.13,8.24 C22.156,9.222 21.39,10.38 21.054,11.742 L21.956,11.368 C22.582,10.464 23.551,10.117 24.57,10.07 L24.992,10.111 L29.569,8.215 C29.213,7.863 29.442,8.062 28.84,7.67 Q27.74,7.05 26.41,7.05 z M31.007,8.786 L30.617,8.863 L0.617,21.289 C0.107,21.501 -0.135,22.086 0.076,22.596 C0.287,23.106 0.872,23.348 1.383,23.137 L31.383,10.711 C31.893,10.499 32.135,9.914 31.924,9.404 C31.562,8.866 31.825,9.125 31.007,8.786 z" fill="#000000"/>
  </g>
</svg>
