<svg xmlns="http://www.w3.org/2000/svg" viewBox="0 0 32 32"><path d="M0 0h32v32H0z" fill="none"/><path d="M6.74 16.33v5.48q0 1.35.15 1.69t.58.6q.44.24 1.18.24h.59v.49H0v-.48h.59q.77 0 1.23-.28.34-.18.53-.62.14-.32.14-1.64V10.17q0-1.35-.15-1.7-.14-.33-.57-.58-.44-.26-1.18-.26H0v-.48h9.24v.48h-.59q-.77 0-1.24.28-.33.18-.53.62-.14.31-.14 1.64v5h6.24v-5q0-1.35-.15-1.7-.14-.33-.58-.58-.45-.26-1.19-.26h-.57v-.48h9.22v.48h-.57q-.78 0-1.24.28-.34.18-.53.62-.14.31-.14 1.64V21.8q0 1.35.14 1.69t.58.6q.45.24 1.19.24h.57v.49H10.5v-.48h.57q.78 0 1.24-.28.34-.18.53-.62.15-.32.15-1.64v-5.48zm17.4-.36q2.41.57 3.66 2.08 1.25 1.5 1.25 3.29 0 1.17-.69 1.93t-1.65.76q-1.1 0-2.38-1.03-1.27-1.04-1.48-1.14-.37-.19-.8-.19-.57 0-1 .43-.43.42-.43 1.02 0 .82.75 1.34 1.03.74 3.27.74 3.36 0 5.36-1.93t2-4.7q0-1.64-.8-2.73-.8-1.08-2.33-1.83 1.19-.69 1.74-1.6.56-.9.56-1.88 0-1.5-1.2-2.61-1.19-1.12-3.02-1.12-1.8 0-3.27 1.09-1.46 1.1-2.4 3.27l.48.17q1.28-1.93 3.1-1.93 1.17 0 1.96.78.79.77.79 1.85 0 .78-.42 1.55-.42.76-.99 1.13t-2.06.8z"/></svg>