<?xml version="1.0" encoding="UTF-8"?>
<!DOCTYPE svg PUBLIC "-//W3C//DTD SVG 1.1//EN" "http://www.w3.org/Graphics/SVG/1.1/DTD/svg11.dtd">
<svg version="1.1" xmlns="http://www.w3.org/2000/svg" xmlns:xlink="http://www.w3.org/1999/xlink" x="0" y="0" width="32" height="32" viewBox="0, 0, 32, 32">
  <g id="Background">
    <rect x="0" y="0" width="32" height="32" fill="#000000" fill-opacity="0"/>
  </g>
  <g id="Layer_1">
    <path d="M6.743,21.999 C6.744,22.503 6.753,23.012 6.89,23.5 Q7.04,23.84 7.47,24.1 Q7.91,24.34 8.65,24.34 L9.24,24.34 L9.24,24.83 L0,24.83 L0,24.35 L0.59,24.35 Q1.36,24.35 1.82,24.07 L1.9,24.005 L6.743,21.999 z M17.23,17.655 L12.99,19.411 L12.99,21.8 Q12.99,23.12 12.84,23.44 Q12.65,23.88 12.31,24.06 Q11.85,24.34 11.07,24.34 L10.5,24.34 L10.5,24.82 L19.71,24.82 L19.71,24.33 L19.14,24.33 Q18.4,24.33 17.95,24.09 Q17.51,23.83 17.37,23.49 Q17.23,23.15 17.23,21.8 L17.23,17.655 z M9.24,7.15 L0,7.15 L0,7.63 L0.59,7.63 Q1.33,7.63 1.77,7.89 Q2.2,8.14 2.34,8.47 Q2.49,8.82 2.49,10.17 L2.49,19.431 L6.74,17.671 L6.74,16.33 L9.99,16.325 L12.777,15.17 L6.74,15.17 L6.74,10.17 Q6.74,8.84 6.88,8.53 Q7.08,8.09 7.41,7.91 Q7.88,7.63 8.65,7.63 L9.24,7.63 L9.24,7.15 z M19.71,7.15 L10.49,7.15 L10.49,7.63 L11.06,7.63 Q11.8,7.63 12.25,7.89 Q12.69,8.14 12.83,8.47 Q12.98,8.82 12.98,10.17 L12.98,15.086 L17.23,13.326 L17.23,10.17 Q17.23,8.84 17.37,8.53 Q17.56,8.09 17.9,7.91 Q18.36,7.63 19.14,7.63 L19.71,7.63 L19.71,7.15 z M30.777,12.044 L27.215,13.519 L27.19,13.58 Q26.77,14.34 26.2,14.71 Q25.63,15.08 24.14,15.51 L24.14,15.97 Q26.55,16.54 27.8,18.05 Q29.05,19.55 29.05,21.34 Q29.05,22.51 28.36,23.27 Q27.67,24.03 26.71,24.03 Q25.61,24.03 24.33,23 Q23.06,21.96 22.85,21.86 Q22.48,21.67 22.05,21.67 Q21.48,21.67 21.05,22.1 Q20.62,22.52 20.62,23.12 Q20.62,23.94 21.37,24.46 Q22.4,25.2 24.64,25.2 Q28,25.2 30,23.27 Q32,21.34 32,18.57 Q32,16.93 31.2,15.84 Q30.4,14.76 28.87,14.01 Q30.06,13.32 30.61,12.41 L30.777,12.044 z M26.95,6.8 Q25.15,6.8 23.68,7.89 Q22.22,8.99 21.28,11.16 L21.76,11.33 Q23.04,9.4 24.86,9.4 C25.634,9.467 25.247,9.379 26.017,9.686 L30.055,8.013 L29.97,7.92 Q28.78,6.8 26.95,6.8 z M31.007,8.786 L30.617,8.863 L0.617,21.289 C0.107,21.501 -0.135,22.086 0.076,22.596 C0.287,23.106 0.872,23.348 1.383,23.137 L31.383,10.711 C31.893,10.499 32.135,9.914 31.924,9.404 C31.562,8.866 31.825,9.125 31.007,8.786 z" fill="#000000"/>
  </g>
</svg>
