<svg xmlns="http://www.w3.org/2000/svg" viewBox="0 0 32 32"><path d="M0 0h32v32H0z" fill="none"/><path d="M6.69 16.52v5.43q0 1.35.15 1.68.15.34.58.59t1.17.25h.58v.48H0v-.48h.58q.77 0 1.23-.27.34-.18.52-.62.14-.31.14-1.63V10.41q0-1.34-.14-1.68t-.58-.59T.58 7.9H0v-.48h9.17v.48H8.6q-.76 0-1.23.27-.34.18-.53.62-.14.31-.14 1.63v4.97h6.2V10.4q0-1.34-.15-1.68t-.58-.59-1.18-.25h-.57V7.4h9.16v.48H19q-.77 0-1.23.27-.33.18-.53.62-.14.31-.14 1.63v11.54q0 1.35.14 1.68.14.34.58.59t1.18.25h.57v.48h-9.16v-.48h.57q.78 0 1.23-.27.34-.18.53-.62.14-.31.14-1.63v-5.43zM32 19.88h-.47q-.44.9-.7 1.17-.28.28-.7.4t-1.82.11h-3.79q4.4-4.28 5.7-6.67.96-1.77.96-3.5 0-.94-.62-2.02t-1.72-1.7-2.43-.62q-1.86 0-3.28 1.19Q21.7 9.43 21 11.9l.47.17q1.1-2 3.1-2 1.21 0 2.05.9t.84 2.26q0 1.87-1.01 3.82-1.02 1.95-5.76 7.6v.3h10.32z"/></svg>