<?xml version="1.0" encoding="UTF-8"?>
<!DOCTYPE svg PUBLIC "-//W3C//DTD SVG 1.1//EN" "http://www.w3.org/Graphics/SVG/1.1/DTD/svg11.dtd">
<svg version="1.1" xmlns="http://www.w3.org/2000/svg" xmlns:xlink="http://www.w3.org/1999/xlink" x="0" y="0" width="32" height="32" viewBox="0, 0, 32, 32">
  <g id="Background">
    <rect x="0" y="0" width="32" height="32" fill="#000000" fill-opacity="0"/>
  </g>
  <g id="Layer_1">
    <path d="M17.5,17.543 L17.5,22.1 Q17.5,23.48 17.65,23.82 Q17.8,24.16 18.25,24.42 Q18.69,24.68 19.45,24.68 L20.03,24.68 L20.03,25.18 L10.66,25.18 L10.66,24.68 L11.24,24.68 Q12.04,24.68 12.5,24.4 Q12.84,24.22 13.04,23.77 Q13.19,23.45 13.19,22.1 L13.19,19.329 L17.5,17.543 z M6.85,21.955 L2.344,23.821 C2.091,24.256 2.254,24.065 1.85,24.39 Q1.38,24.67 0.6,24.67 L-0,24.67 L-0,25.17 L9.39,25.17 L9.39,24.67 L8.8,24.67 Q8.05,24.67 7.6,24.41 Q7.15,24.15 7,23.81 Q6.85,23.47 6.85,22.09 L6.85,21.955 z M9.39,7.2 L-0,7.2 L-0,7.7 L0.6,7.7 Q1.35,7.7 1.79,7.96 Q2.23,8.22 2.38,8.56 Q2.53,8.9 2.53,10.29 L2.53,19.415 L6.85,17.625 L6.85,16.53 L9.484,16.534 L12.295,15.37 L6.84,15.37 L6.84,10.28 Q6.84,8.93 6.99,8.61 Q7.19,8.16 7.53,7.98 Q8.01,7.7 8.79,7.7 L9.39,7.7 L9.39,7.2 z M20.03,7.2 L10.66,7.2 L10.66,7.7 L11.24,7.7 Q11.99,7.7 12.44,7.96 Q12.89,8.22 13.04,8.56 Q13.19,8.9 13.19,10.28 L13.19,14.999 L17.5,13.214 L17.5,10.28 Q17.5,8.93 17.65,8.61 Q17.85,8.16 18.19,7.98 Q18.65,7.7 19.45,7.7 L20.03,7.7 L20.03,7.2 z M29.35,12.635 L25.49,14.234 L25.49,21.53 Q25.49,23.23 25.32,23.69 Q25.15,24.15 24.66,24.42 Q24.16,24.68 23.01,24.68 L22.54,24.68 L22.54,25.18 L32,25.18 L32,24.68 L31.59,24.68 Q30.57,24.68 30.11,24.39 Q29.64,24.09 29.5,23.64 Q29.36,23.19 29.35,21.54 L29.35,12.635 z M29.35,6.82 L28.92,6.83 L22.3,9.87 L22.54,10.34 Q23.5,9.92 24.18,9.92 C24.704,9.993 24.456,9.918 24.926,10.138 L29.35,8.305 L29.35,6.82 z M31.007,8.786 L30.617,8.863 L0.617,21.289 C0.107,21.501 -0.135,22.086 0.076,22.596 C0.287,23.106 0.872,23.348 1.383,23.137 L31.383,10.711 C31.893,10.499 32.135,9.914 31.924,9.404 C31.562,8.866 31.825,9.125 31.007,8.786 z" fill="#000000"/>
  </g>
</svg>
