<svg xmlns="http://www.w3.org/2000/svg" viewBox="0 0 32 32">
    <path d="M16 0q3.25 0 6.214 1.27 2.964 1.266 5.108 3.408 2.142 2.145 3.408 5.108A15.6 15.6 0 0 1 32 16a15.6 15.6 0 0 1-1.27 6.214q-1.266 2.964-3.408 5.108-2.145 2.142-5.108 3.408A15.6 15.6 0 0 1 16 32a15.6 15.6 0 0 1-6.214-1.27q-2.964-1.266-5.108-3.408-2.142-2.145-3.408-5.108A15.6 15.6 0 0 1 0 16q0-3.25 1.27-6.214 1.266-2.964 3.408-5.108Q6.823 2.536 9.786 1.27A15.6 15.6 0 0 1 16 0m0 2.286q-3.392 0-6.446 1.604l3.464 3.468q1.464-.5 2.982-.5t2.982.5l3.464-3.468A13.7 13.7 0 0 0 16 2.286M3.894 22.446l3.464-3.464a9.2 9.2 0 0 1-.5-2.982q0-1.518.5-2.982L3.894 9.554Q2.286 12.608 2.286 16t1.608 6.446M16 29.714q3.392 0 6.446-1.608l-3.464-3.464q-1.464.5-2.982.5a9.2 9.2 0 0 1-2.982-.5l-3.464 3.464q3.054 1.608 6.446 1.608m0-6.856q2.84 0 4.848-2.01 2.01-2.008 2.01-4.848t-2.01-4.848Q18.84 9.142 16 9.142t-4.848 2.01Q9.142 13.16 9.142 16t2.01 4.848q2.008 2.01 4.848 2.01m8.642-3.876 3.464 3.464q1.608-3.054 1.608-6.446t-1.608-6.446l-3.464 3.464q.5 1.464.5 2.982a9.2 9.2 0 0 1-.5 2.982"/>
</svg>
