<svg xmlns="http://www.w3.org/2000/svg" viewBox="0 0 32 32"><path d="M0 0h32v32H0z" fill="none"/><path d="M20.413 11.587a9.494 9.494 0 0 1 0 13.434l-4.2 4.2c-3.704 3.706-9.73 3.704-13.434 0-3.706-3.702-3.706-9.73 0-13.434l2.318-2.32c.616-.614 1.674-.206 1.706.664.04 1.108.24 2.22.606 3.294.124.364.036.768-.236 1.04l-.818.816c-1.752 1.752-1.808 4.604-.072 6.374a4.504 4.504 0 0 0 6.394.032l4.2-4.2a4.497 4.497 0 0 0-.646-6.9 1 1 0 0 1-.434-.788c-.024-.66.21-1.34.732-1.862l1.316-1.316a1 1 0 0 1 1.286-.108c.458.32.888.678 1.282 1.074m8.808-8.808c-3.704-3.704-9.73-3.706-13.434 0l-4.2 4.2a9.494 9.494 0 0 0 1.282 14.508c.4.28.942.238 1.286-.108l1.316-1.316a2.5 2.5 0 0 0 .732-1.862 1 1 0 0 0-.434-.788 4.497 4.497 0 0 1-.646-6.9l4.2-4.2a4.504 4.504 0 0 1 6.394.032c1.734 1.77 1.68 4.622-.072 6.374l-.818.816c-.272.272-.36.676-.236 1.04.366 1.074.566 2.186.606 3.294.032.87 1.09 1.278 1.706.664l2.318-2.32c3.706-3.704 3.706-9.732 0-13.434"/></svg>