<svg viewBox="0 0 32 32" xmlns="http://www.w3.org/2000/svg" xml:space="preserve" fill-rule="evenodd" clip-rule="evenodd" stroke-linejoin="round" stroke-miterlimit="2">
    <path d="M13.4 28a4 4 0 0 1 0-6H4c-2.2 0-4-1.8-4-4V4c0-2.2 1.8-4 4-4h24c2.2 0 4 1.8 4 4v14c0 2.2-1.8 4-4 4h-9.4a4 4 0 0 1 0 6H32v4H0v-4zm-3.19-10a.7.7 0 0 0 .57-.26 1 1 0 0 0 .22-.61V4.88a1 1 0 0 0-.22-.62.7.7 0 0 0-.57-.26q-.3 0-.52.26L4.22 10.4A1 1 0 0 0 4 11q0 .34.22.61l5.47 6.13q.17.26.52.26m11.58 0q.34 0 .52-.26l5.47-6.13A1 1 0 0 0 28 11a1 1 0 0 0-.22-.61l-5.47-6.13A.7.7 0 0 0 21.8 4a.7.7 0 0 0-.57.26 1 1 0 0 0-.22.62v12.25q0 .34.22.6a.7.7 0 0 0 .57.27"/>
</svg>
