<svg xmlns="http://www.w3.org/2000/svg" viewBox="0 0 32 32"><path d="M0 0h32v32H0z" fill="none"/><path d="M3.096 8.73a3.115 3.115 0 1 0 0-6.23 3.115 3.115 0 0 0 0 6.23m8.26-5.2a2.08 2.08 0 1 0 0 4.16h18.58a2.07 2.07 0 0 0 2.06-2.08c0-1.14-.92-2.07-2.07-2.07zm0 10.4A2.07 2.07 0 0 0 9.286 16c0 1.15.92 2.08 2.07 2.08h18.58a2.07 2.07 0 0 0 1.46-3.55c-.39-.39-.92-.6-1.46-.6zm0 10.38c-.551 0-1.079.219-1.467.61-.389.39-.606.919-.603 1.47 0 1.14.92 2.07 2.07 2.07h18.58a2.07 2.07 0 0 0 1.46-3.54c-.39-.4-.92-.61-1.46-.61zm-8.26 5.19a3.115 3.115 0 1 0 0-6.23 3.115 3.115 0 0 0 0 6.23m3.1-13.5a3.1 3.1 0 0 0-3.1-3.11 3.11 3.11 0 1 0 2.196 5.308A3.1 3.1 0 0 0 6.196 16"/></svg>