<?xml version="1.0" encoding="UTF-8"?>
<!DOCTYPE svg PUBLIC "-//W3C//DTD SVG 1.1//EN" "http://www.w3.org/Graphics/SVG/1.1/DTD/svg11.dtd">
<svg version="1.1" xmlns="http://www.w3.org/2000/svg" xmlns:xlink="http://www.w3.org/1999/xlink" x="0" y="0" width="32" height="32" viewBox="0, 0, 32, 32">
  <g id="Background">
    <rect x="0" y="0" width="32" height="32" fill="#000000" fill-opacity="0"/>
  </g>
  <g id="Layer_1">
    <path d="M3.096,8.73 C4.816,8.73 6.211,7.335 6.211,5.615 C6.211,3.895 4.816,2.5 3.096,2.5 C1.376,2.5 -0.019,3.895 -0.019,5.615 C-0.019,7.335 1.376,8.73 3.096,8.73 M11.356,3.53 C10.207,3.53 9.276,4.461 9.276,5.61 C9.276,6.759 10.207,7.69 11.356,7.69 L29.936,7.69 C31.079,7.684 32.002,6.753 31.996,5.61 C31.996,4.47 31.076,3.54 29.926,3.54 z M11.356,13.93 C10.213,13.93 9.286,14.857 9.286,16 C9.286,17.15 10.206,18.08 11.356,18.08 L29.936,18.08 C30.78,18.085 31.542,17.578 31.863,16.797 C32.184,16.017 31.999,15.12 31.396,14.53 C31.006,14.14 30.476,13.93 29.936,13.93 z M11.356,24.31 C10.805,24.31 10.277,24.529 9.889,24.92 C9.5,25.31 9.283,25.839 9.286,26.39 C9.286,27.53 10.206,28.46 11.356,28.46 L29.936,28.46 C30.775,28.461 31.532,27.955 31.852,27.179 C32.172,26.403 31.992,25.511 31.396,24.92 C31.006,24.52 30.476,24.31 29.936,24.31 z M3.096,29.5 C4.816,29.5 6.211,28.105 6.211,26.385 C6.211,24.665 4.816,23.27 3.096,23.27 C1.376,23.27 -0.019,24.665 -0.019,26.385 C-0.019,28.105 1.376,29.5 3.096,29.5 M6.196,16 C6.199,15.176 5.873,14.385 5.292,13.802 C4.71,13.218 3.92,12.89 3.096,12.89 C1.688,12.888 0.454,13.833 0.088,15.193 C-0.277,16.553 0.317,17.989 1.536,18.693 C2.756,19.397 4.297,19.194 5.292,18.198 C5.873,17.615 6.199,16.824 6.196,16" fill="#000000"/>
  </g>
</svg>
