<?xml version="1.0" encoding="UTF-8"?>
<!DOCTYPE svg PUBLIC "-//W3C//DTD SVG 1.1//EN" "http://www.w3.org/Graphics/SVG/1.1/DTD/svg11.dtd">
<svg version="1.1" xmlns="http://www.w3.org/2000/svg" xmlns:xlink="http://www.w3.org/1999/xlink" x="0" y="0" width="32" height="32" viewBox="0, 0, 32, 32">
  <g id="Background">
    <rect x="0" y="0" width="32" height="32" fill="#000000" fill-opacity="0"/>
  </g>
  <g id="Layer_1">
    <path d="M3.096,8.73 C4.816,8.73 6.211,7.335 6.211,5.615 C6.211,3.895 4.816,2.5 3.096,2.5 C1.376,2.5 -0.019,3.895 -0.019,5.615 C-0.019,7.335 1.376,8.73 3.096,8.73 M11.356,3.53 C10.207,3.53 9.276,4.461 9.276,5.61 C9.276,6.759 10.207,7.69 11.356,7.69 L29.936,7.69 C31.079,7.684 32.002,6.753 31.996,5.61 C31.996,4.47 31.076,3.54 29.926,3.54 z M17.586,13.93 C16.443,13.93 15.516,14.857 15.516,16 C15.516,17.15 16.436,18.08 17.586,18.08 L30.073,18.08 C30.917,18.085 31.679,17.578 32,16.797 C32.321,16.017 32.136,15.12 31.533,14.53 C31.143,14.14 30.613,13.93 30.073,13.93 z M17.586,24.31 C17.035,24.31 16.507,24.529 16.119,24.92 C15.73,25.31 15.513,25.839 15.516,26.39 C15.516,27.53 16.436,28.46 17.586,28.46 L30.239,28.46 C31.079,28.461 31.836,27.955 32.156,27.179 C32.476,26.403 32.295,25.511 31.699,24.92 C31.309,24.52 30.779,24.31 30.239,24.31 z M9.326,29.5 C11.046,29.5 12.441,28.105 12.441,26.385 C12.441,24.665 11.046,23.27 9.326,23.27 C7.606,23.27 6.211,24.665 6.211,26.385 C6.211,28.105 7.606,29.5 9.326,29.5 M12.426,16 C12.429,15.176 12.103,14.385 11.522,13.802 C10.94,13.218 10.15,12.89 9.326,12.89 C7.918,12.888 6.684,13.833 6.318,15.193 C5.953,16.553 6.547,17.989 7.766,18.693 C8.986,19.397 10.527,19.194 11.522,18.198 C12.103,17.615 12.429,16.824 12.426,16" fill="#000000"/>
  </g>
</svg>
