<svg xmlns="http://www.w3.org/2000/svg" viewBox="0 0 32 32"><path d="M0 0h32v32H0z" fill="none"/><path d="M29.93 3.54a2.07 2.07 0 0 1 .01 4.15H11.36a2.08 2.08 0 1 1 0-4.16zM11.36 13.93a2.07 2.07 0 0 0 0 4.15h18.58a2.07 2.07 0 0 0 1.46-3.55c-.4-.39-.92-.6-1.46-.6zm0 10.38a2.07 2.07 0 0 0-2.07 2.08c0 1.14.92 2.07 2.07 2.07h18.58a2.07 2.07 0 1 0 0-4.15zM4.46 3.53.55 5.31l.13.28q.58-.25.97-.25.25 0 .45.13.19.13.26.31.07.19.07.92v5.5q0 1-.1 1.27t-.4.43-.96.15H.69v.3h5.58v-.3h-.24q-.6 0-.87-.17-.28-.17-.36-.44-.09-.27-.09-1.25V3.53zM6.82 25.4h-.28q-.27.54-.43.7-.17.17-.42.24t-1.1.07H2.31q2.66-2.58 3.45-4.03.58-1.07.58-2.1 0-.58-.38-1.23-.37-.65-1.04-1.03-.66-.37-1.47-.37-1.12 0-1.98.72T.19 20.59l.29.1q.66-1.2 1.86-1.2.74 0 1.25.54.5.54.5 1.36 0 1.13-.61 2.3-.61 1.18-3.48 4.6v.17h6.23z"/></svg>