<?xml version="1.0" encoding="UTF-8"?>
<!DOCTYPE svg PUBLIC "-//W3C//DTD SVG 1.1//EN" "http://www.w3.org/Graphics/SVG/1.1/DTD/svg11.dtd">
<svg version="1.1" xmlns="http://www.w3.org/2000/svg" xmlns:xlink="http://www.w3.org/1999/xlink" x="0" y="0" width="32" height="32" viewBox="0, 0, 32, 32">
  <g id="Background">
    <rect x="0" y="0" width="32" height="32" fill="#000000" fill-opacity="0"/>
  </g>
  <g id="Layer_1">
    <path d="M10.944,16.543 L10.944,25.426 Q10.944,27.631 11.183,28.174 Q11.423,28.717 12.142,29.132 Q12.861,29.548 14.059,29.548 L15.001,29.548 L15.001,30.346 L0,30.346 L0,29.548 L0.959,29.548 Q2.205,29.548 2.956,29.1 Q3.515,28.813 3.802,28.094 Q4.042,27.583 4.042,25.426 L4.042,6.574 Q4.042,4.353 3.802,3.81 Q3.563,3.267 2.86,2.852 Q2.157,2.436 0.959,2.436 L0,2.436 L0,1.638 L15.001,1.638 L15.001,2.436 L14.043,2.436 Q12.797,2.436 12.03,2.884 Q11.487,3.171 11.167,3.89 Q10.928,4.401 10.928,6.558 L10.928,14.69 L21.072,14.69 L21.072,6.558 Q21.072,4.353 20.833,3.81 Q20.593,3.267 19.874,2.852 Q19.155,2.436 17.957,2.436 L17.03,2.436 L17.03,1.638 L32,1.638 L32,2.436 L31.073,2.436 Q29.795,2.436 29.06,2.884 Q28.517,3.171 28.198,3.89 Q27.958,4.401 27.958,6.558 L27.958,25.442 Q27.958,27.647 28.198,28.19 Q28.437,28.733 29.156,29.148 Q29.859,29.564 31.073,29.564 L32,29.564 L32,30.362 L17.03,30.362 L17.03,29.564 L17.957,29.564 Q19.235,29.564 19.97,29.116 Q20.513,28.829 20.833,28.11 Q21.072,27.599 21.072,25.442 L21.072,16.559 z" fill="#000000"/>
  </g>
</svg>
