<svg xmlns="http://www.w3.org/2000/svg" viewBox="0 0 32 27">
    <path d="M3.1 6.23A3.1 3.1 0 0 0 3.1 0a3.1 3.1 0 0 0 0 6.23m8.26-5.2a2.08 2.08 0 0 0 0 4.16h18.58A2.07 2.07 0 0 0 32 3.11c0-1.14-.92-2.07-2.07-2.07zm0 10.4a2.07 2.07 0 0 0-2.07 2.07c0 1.15.92 2.08 2.07 2.08h18.58a2.07 2.07 0 0 0 1.46-3.55c-.39-.39-.92-.6-1.46-.6zm0 10.38a2.07 2.07 0 0 0-2.07 2.08c0 1.14.92 2.07 2.07 2.07h18.58a2.07 2.07 0 0 0 1.46-3.54c-.39-.4-.92-.61-1.46-.61zM3.1 27a3.1 3.1 0 0 0 0-6.23 3.1 3.1 0 0 0 0 6.23m3.1-13.5a3.1 3.1 0 0 0-3.1-3.11 3.1 3.1 0 0 0 0 6.22 3.1 3.1 0 0 0 3.1-3.11"/>
</svg>
