<svg xmlns="http://www.w3.org/2000/svg" viewBox="0 0 30 32">
    <path d="M29.62 17.23q0 3-1.17 5.73a15 15 0 0 1-3.16 4.71 15 15 0 0 1-4.7 3.16A14 14 0 0 1 14.84 32q-3 0-5.73-1.17a15 15 0 0 1-4.7-3.16A15 15 0 0 1 .07 17.23q0-3.5 1.55-6.6A14.5 14.5 0 0 1 6 5.45a2.4 2.4 0 0 1 1.84-.48q1 .14 1.6.96.62.81.47 1.82a2.4 2.4 0 0 1-.95 1.63A10 10 0 0 0 5 17.23q0 2 .78 3.82a10 10 0 0 0 2.1 3.14 10 10 0 0 0 3.15 2.11 9.6 9.6 0 0 0 7.63 0 10 10 0 0 0 3.15-2.1 10 10 0 0 0 2.88-6.97 10 10 0 0 0-1.03-4.38 10 10 0 0 0-2.9-3.48 2.4 2.4 0 0 1-.96-1.63 2.3 2.3 0 0 1 .47-1.82 2.3 2.3 0 0 1 1.62-.96c.65-.1 1.3.08 1.82.48a14.6 14.6 0 0 1 5.91 11.8zM17.32 2.46v12.31q0 1-.74 1.73-.72.73-1.73.73-1 0-1.73-.73a2.4 2.4 0 0 1-.73-1.73V2.47q0-1.01.73-1.74A2.4 2.4 0 0 1 14.85 0q1 0 1.73.73.73.74.73 1.73"/>
</svg>
