<?xml version="1.0" encoding="UTF-8" standalone="no"?>
<!DOCTYPE svg PUBLIC "-//W3C//DTD SVG 1.1//EN" "http://www.w3.org/Graphics/SVG/1.1/DTD/svg11.dtd">
<svg width="100%" height="100%" viewBox="0 0 32 32" version="1.1" xmlns="http://www.w3.org/2000/svg" xmlns:xlink="http://www.w3.org/1999/xlink" xml:space="preserve" xmlns:serif="http://www.serif.com/" style="fill-rule:evenodd;clip-rule:evenodd;stroke-linejoin:round;stroke-miterlimit:2;">
    <path d="M24,1.04L24,6.96C24,7.534 23.534,8 22.96,8L9.04,8C8.466,8 8,7.534 8,6.96L8,1.04C8,0.466 8.466,0 9.04,0L22.96,0C23.534,0 24,0.466 24,1.04ZM8,25L3.69,25C2.757,25 2,24.243 2,23.31L2,11.69C2,10.757 2.757,10 3.69,10L28.31,10C29.243,10 30,10.757 30,11.69L30,23.31C30,24.243 29.243,25 28.31,25L24,25L24,22.65C24,22.291 23.709,22 23.35,22L8.65,22C8.291,22 8,22.291 8,22.65L8,25ZM22,25.3L22,30.7C22,31.417 21.417,32 20.7,32L11.3,32C10.583,32 10,31.417 10,30.7L10,25.3C10,24.583 10.583,24 11.3,24L20.7,24C21.417,24 22,24.583 22,25.3Z"/>
</svg>
