<?xml version="1.0" encoding="UTF-8"?>
<!DOCTYPE svg PUBLIC "-//W3C//DTD SVG 1.1//EN" "http://www.w3.org/Graphics/SVG/1.1/DTD/svg11.dtd">
<svg version="1.1" xmlns="http://www.w3.org/2000/svg" xmlns:xlink="http://www.w3.org/1999/xlink" x="0" y="0" width="32" height="32" viewBox="0, 0, 32, 32">
  <g id="Background">
    <rect x="0" y="0" width="32" height="32" fill="#000000" fill-opacity="0"/>
  </g>
  <g id="Layer_1">
    <path d="M0,7.529 C0,5.088 1.859,3.082 4.235,2.847 L4.235,2.824 L20.706,2.824 C23.824,2.824 26.353,5.353 26.353,8.471 L26.353,18.824 L16,18.824 C13.659,18.824 11.765,20.718 11.765,23.059 L11.765,26.588 C11.765,28.018 10.606,29.176 9.176,29.176 C7.747,29.176 6.588,28.018 6.588,26.588 L6.588,13.176 L2.824,13.176 C1.265,13.176 0,11.912 0,10.353 L0,7.529 z M13.929,29.176 C14.347,28.406 14.588,27.524 14.588,26.588 L14.588,23.059 C14.588,22.276 15.218,21.647 16,21.647 L30.588,21.647 C31.371,21.647 32,22.276 32,23.059 L32,24.471 C32,27.071 29.894,29.176 27.294,29.176 L13.929,29.176 z M4.706,5.647 C3.665,5.647 2.824,6.488 2.824,7.529 L2.824,10.353 L6.588,10.353 L6.588,7.529 C6.588,6.488 5.747,5.647 4.706,5.647 z" fill="#000000"/>
  </g>
</svg>
