<?xml version="1.0" encoding="UTF-8" standalone="no"?>
<!DOCTYPE svg PUBLIC "-//W3C//DTD SVG 1.1//EN" "http://www.w3.org/Graphics/SVG/1.1/DTD/svg11.dtd">
<svg width="100%" height="100%" viewBox="0 0 32 32" version="1.1" xmlns="http://www.w3.org/2000/svg" xmlns:xlink="http://www.w3.org/1999/xlink" xml:space="preserve" xmlns:serif="http://www.serif.com/" style="fill-rule:evenodd;clip-rule:evenodd;stroke-linejoin:round;stroke-miterlimit:2;">
    <path d="M16,26L31.22,26C31.65,26 32,26.35 32,26.78L32,31.22C32,31.65 31.65,32 31.22,32L0.78,32C0.35,32 0,31.65 0,31.22L0,26.78C0,26.35 0.35,26 0.78,26L15.914,26C15.656,25.99 15.408,25.891 15.213,25.718L7.34,18.689C7.114,18.539 7.002,18.314 7.002,18.014C7.002,17.714 7.114,17.47 7.34,17.283C7.564,17.095 7.826,17.001 8.126,17.001L23.874,17.001C24.163,16.99 24.444,17.091 24.66,17.283C24.885,17.47 24.998,17.714 24.998,18.014C24.998,18.276 24.885,18.501 24.66,18.689L16.788,25.718C16.562,25.906 16.3,26 16,26ZM15.914,6L0.78,6C0.35,6 0,5.65 0,5.22L0,0.78C0,0.35 0.35,0 0.78,0L31.22,0C31.65,0 32,0.35 32,0.78L32,5.22C32,5.65 31.65,6 31.22,6L16,6C16.3,6 16.562,6.094 16.788,6.282L24.66,13.311C24.885,13.499 24.998,13.724 24.998,13.986C24.998,14.286 24.885,14.53 24.66,14.717C24.444,14.909 24.163,15.01 23.874,14.999L8.126,14.999C7.826,14.999 7.564,14.905 7.34,14.717C7.114,14.53 7.002,14.286 7.002,13.986C7.002,13.686 7.114,13.461 7.34,13.311L15.213,6.282C15.408,6.109 15.656,6.01 15.914,6Z"/>
</svg>
