<?xml version="1.0" encoding="UTF-8" standalone="no"?>
<!DOCTYPE svg PUBLIC "-//W3C//DTD SVG 1.1//EN" "http://www.w3.org/Graphics/SVG/1.1/DTD/svg11.dtd">
<svg width="100%" height="100%" viewBox="0 0 32 32" version="1.1" xmlns="http://www.w3.org/2000/svg" xmlns:xlink="http://www.w3.org/1999/xlink" xml:space="preserve" xmlns:serif="http://www.serif.com/" style="fill-rule:evenodd;clip-rule:evenodd;stroke-linejoin:round;stroke-miterlimit:2;">
    <path d="M7,30.988C7,30.688 7.112,30.463 7.338,30.313L15.213,23.282C15.429,23.09 15.711,22.99 16,23.001C16.3,23.001 16.562,23.094 16.788,23.282L24.662,30.313C24.887,30.501 25,30.726 25,30.988C25,31.288 24.887,31.532 24.662,31.719C24.446,31.911 24.164,32.012 23.875,32.001L8.125,32.001C7.825,32.001 7.562,31.907 7.338,31.719C7.112,31.532 7,31.288 7,30.988ZM32,2.6L32,17.4C32,18.835 30.835,20 29.4,20L2.6,20C1.165,20 0,18.835 0,17.4L0,2.6C0,1.165 1.165,0 2.6,0L29.4,0C30.835,0 32,1.165 32,2.6Z"/>
</svg>
