<?xml version="1.0" encoding="UTF-8" standalone="no"?>
<!DOCTYPE svg PUBLIC "-//W3C//DTD SVG 1.1//EN" "http://www.w3.org/Graphics/SVG/1.1/DTD/svg11.dtd">
<svg width="100%" height="100%" viewBox="0 0 32 32" version="1.1" xmlns="http://www.w3.org/2000/svg" xmlns:xlink="http://www.w3.org/1999/xlink" xml:space="preserve" xmlns:serif="http://www.serif.com/" style="fill-rule:evenodd;clip-rule:evenodd;stroke-linejoin:round;stroke-miterlimit:2;">
    <path d="M15.914,23L0.78,23C0.35,23 0,22.65 0,22.22L0,17.78C0,17.35 0.35,17 0.78,17L31.22,17C31.65,17 32,17.35 32,17.78L32,22.22C32,22.65 31.65,23 31.22,23L16,23C16.3,23 16.562,23.094 16.788,23.282L24.66,30.311C24.885,30.499 24.998,30.724 24.998,30.986C24.998,31.286 24.885,31.53 24.66,31.717C24.444,31.909 24.163,32.01 23.874,31.999L8.126,31.999C7.826,31.999 7.564,31.905 7.34,31.717C7.114,31.53 7.002,31.286 7.002,30.986C7.002,30.686 7.114,30.461 7.34,30.311L15.213,23.282C15.408,23.109 15.656,23.01 15.914,23ZM16,9L31.22,9C31.65,9 32,9.35 32,9.78L32,14.22C32,14.65 31.65,15 31.22,15L0.78,15C0.35,15 0,14.65 0,14.22L0,9.78C0,9.35 0.35,9 0.78,9L15.914,9C15.656,8.99 15.408,8.891 15.213,8.718L7.34,1.689C7.114,1.539 7.002,1.314 7.002,1.014C7.002,0.714 7.114,0.47 7.34,0.283C7.564,0.095 7.826,0.001 8.126,0.001L23.874,0.001C24.163,-0.01 24.444,0.091 24.66,0.283C24.885,0.47 24.998,0.714 24.998,1.014C24.998,1.276 24.885,1.501 24.66,1.689L16.788,8.718C16.562,8.906 16.3,9 16,9Z"/>
</svg>
