<svg viewBox="0 0 32 32" xmlns="http://www.w3.org/2000/svg" xml:space="preserve" fill-rule="evenodd" clip-rule="evenodd" stroke-linejoin="round" stroke-miterlimit="2"><path d="M7 24.01V24a.9.9 0 0 1 .33-.73q.36-.28.8-.28h15.74q.45 0 .8.28A.9.9 0 0 1 25 24a1 1 0 0 1-.34.69l-7.87 7.03q-.33.27-.79.28-.45 0-.79-.28l-7.87-7.03a.8.8 0 0 1-.34-.68M14 12v6.18c0 1-.82 1.82-1.82 1.82H1.82C.82 20 0 19.18 0 18.18V1.82C0 .82.82 0 1.82 0h10.36c1 0 1.82.82 1.82 1.82V8h-4V4H4v12h6v-4zm4.06-4V1.82c0-1 .82-1.82 1.82-1.82h10.36c1 0 1.82.82 1.82 1.82v16.36c0 1-.82 1.82-1.82 1.82H19.88c-1 0-1.82-.82-1.82-1.82V12h4v4h6V4h-6v4z"/></svg>