<svg viewBox="0 0 32 32" xmlns="http://www.w3.org/2000/svg" xml:space="preserve" fill-rule="evenodd" clip-rule="evenodd" stroke-linejoin="round" stroke-miterlimit="2"><path d="M32 13v6a1 1 0 0 1-1 1H1a1 1 0 0 1-1-1v-6a1 1 0 0 1 1-1h30a1 1 0 0 1 1 1M2 14v4h28v-4zm23 10.01q0 .45-.34.68l-7.87 7.03q-.34.29-.79.28t-.79-.28l-7.87-7.03A1 1 0 0 1 7 24q0-.45.34-.73.34-.29.79-.28h15.74q.45 0 .8.28A.9.9 0 0 1 25 24M7 8q0-.45.34-.68L15.2.28Q15.55 0 16 0t.79.28l7.87 7.03Q25 7.6 25 8a.9.9 0 0 1-.34.73q-.34.29-.79.28H8.13q-.45 0-.8-.28A.9.9 0 0 1 7 7.99"/></svg>