<svg viewBox="0 0 32 32" xmlns="http://www.w3.org/2000/svg" xml:space="preserve" fill-rule="evenodd" clip-rule="evenodd" stroke-linejoin="round" stroke-miterlimit="2"><path d="M32 13v6a1 1 0 0 1-1 1H1a1 1 0 0 1-1-1v-6a1 1 0 0 1 1-1h30a1 1 0 0 1 1 1M2 14v4h28v-4zM25 1.01q0 .45-.34.68L16.8 8.72Q16.45 9 16 9t-.79-.28L7.34 1.69A1 1 0 0 1 7 1q0-.45.34-.73.34-.29.79-.28h15.74q.45 0 .8.28A.9.9 0 0 1 25 1M7 31q0-.45.34-.68l7.87-7.03q.34-.29.79-.28t.79.28l7.87 7.03q.34.28.34.68a.9.9 0 0 1-.34.73q-.34.29-.79.28H8.13q-.45 0-.8-.28A.9.9 0 0 1 7 31"/></svg>