<?xml version="1.0" encoding="UTF-8" standalone="no"?>
<!DOCTYPE svg PUBLIC "-//W3C//DTD SVG 1.1//EN" "http://www.w3.org/Graphics/SVG/1.1/DTD/svg11.dtd">
<svg width="100%" height="100%" viewBox="0 0 32 32" version="1.1" xmlns="http://www.w3.org/2000/svg" xmlns:xlink="http://www.w3.org/1999/xlink" xml:space="preserve" xmlns:serif="http://www.serif.com/" style="fill-rule:evenodd;clip-rule:evenodd;stroke-linejoin:round;stroke-miterlimit:2;">
    <path d="M32,25L32,31C32,31.552 31.552,32 31,32L1,32C0.448,32 0,31.552 0,31L0,25C0,24.448 0.448,24 1,24L31,24C31.552,24 32,24.448 32,25ZM2,26L2,30L30,30L30,26L2,26ZM32,13L32,19C32,19.552 31.552,20 31,20L1,20C0.448,20 0,19.552 0,19L0,13C0,12.448 0.448,12 1,12L31,12C31.552,12 32,12.448 32,13ZM32,1L32,7C32,7.552 31.552,8 31,8L1,8C0.448,8 0,7.552 0,7L0,1C0,0.448 0.448,0 1,0L31,0C31.552,0 32,0.448 32,1Z"/>
</svg>
