<svg xmlns="http://www.w3.org/2000/svg" viewBox="0 0 32 32"><path d="M0 0h32v32H0z" fill="none"/><path d="M31 14a1 1 0 0 1 1 1v10a1 1 0 0 1-1 1H11a1 1 0 0 1-1-1V15a1 1 0 0 1 1-1zm-15.2 3.7q-1.24 0-1.92.62-.69.63-.69 1.5 0 .75.44 1.14.44.4 1.51.67 1.5.35 1.72.5.23.14.23.42 0 .29-.28.43t-.78.15q-.82 0-1.13-.33-.17-.19-.23-.63H13q0 .97.7 1.6.72.63 2.2.63 1.47 0 2.16-.6.7-.59.7-1.52 0-.72-.49-1.2-.49-.46-1.47-.7-1.48-.32-1.72-.45t-.24-.41q0-.23.22-.4.23-.16.77-.16.66 0 .93.33.14.19.18.5h1.65q-.11-1.15-.85-1.63-.75-.46-1.93-.46m10.98.02q-.79 0-1.3.39-.28.21-.6.7v-.92H23.3v6.3h1.64v-3.42q0-.59.17-.96.31-.71 1.15-.71.68 0 .93.48.13.27.13.77v3.84H29v-4.25q0-1.2-.62-1.7-.62-.52-1.6-.52m-5.1.16h-1.67v6.3h1.67zm0-2.28h-1.67v1.52h1.67zM14 6.79q0-.35-.26-.57T13.13 6H.88a1 1 0 0 0-.62.22Q0 6.44 0 6.78q0 .3.26.53l6.13 5.47q.26.22.61.22t.62-.22l6.12-5.47q.26-.17.26-.52"/></svg>