<?xml version="1.0" encoding="UTF-8"?>
<!DOCTYPE svg PUBLIC "-//W3C//DTD SVG 1.1//EN" "http://www.w3.org/Graphics/SVG/1.1/DTD/svg11.dtd">
<svg version="1.1" xmlns="http://www.w3.org/2000/svg" xmlns:xlink="http://www.w3.org/1999/xlink" x="0" y="0" width="32" height="32" viewBox="0, 0, 32, 32">
  <g id="Background">
    <rect x="0" y="0" width="32" height="32" fill="#000000" fill-opacity="0"/>
  </g>
  <g id="Layer_1">
    <path d="M29,20 C30.657,20 32,21.343 32,23 L32,29 C32,30.657 30.657,32 29,32 L3,32 C1.343,32 0,30.657 0,29 L0,23 C0,21.343 1.343,20 3,20 L29,20 z M29,22 L3,22 C2.448,22 2,22.448 2,23 L2,29 C2,29.552 2.448,30 3,30 L29,30 C29.552,30 30,29.552 30,29 L30,23 C30,22.448 29.552,22 29,22 z M29,2 C29.552,2 30,2.448 30,3 L30,9 C30,9.552 29.552,10 29,10 L3,10 C2.448,10 2,9.552 2,9 L2,3 C2,2.448 2.448,2 3,2 L29,2 z M29,0 L3,0 C1.343,0 0,1.343 0,3 L0,9 C0,10.657 1.343,12 3,12 L29,12 C30.657,12 32,10.657 32,9 L32,3 C32,1.343 30.657,0 29,0 z" fill="#000000"/>
  </g>
</svg>
