<svg viewBox="0 0 32 32" xmlns="http://www.w3.org/2000/svg" xml:space="preserve" fill-rule="evenodd" clip-rule="evenodd" stroke-linejoin="round" stroke-miterlimit="2"><path d="M0 4.362V14.55c0 1.159.457 2.27 1.275 3.088l13.089 13.084a4.36 4.36 0 0 0 6.17 0l10.19-10.188a4.36 4.36 0 0 0 0-6.168L17.637 1.282A4.33 4.33 0 0 0 14.555 0H4.363A4.366 4.366 0 0 0 0 4.362m7.635 1.09c1.207 0 2.182.975 2.182 2.181s-.975 2.181-2.182 2.181-2.181-.975-2.181-2.18.975-2.182 2.181-2.182" fill-rule="nonzero"/></svg>