<?xml version="1.0" encoding="UTF-8"?>
<!DOCTYPE svg PUBLIC "-//W3C//DTD SVG 1.1//EN" "http://www.w3.org/Graphics/SVG/1.1/DTD/svg11.dtd">
<svg version="1.1" xmlns="http://www.w3.org/2000/svg" xmlns:xlink="http://www.w3.org/1999/xlink" x="0" y="0" width="32" height="32" viewBox="0, 0, 32, 32">
  <g id="Background">
    <rect x="0" y="0" width="32" height="32" fill="#000000" fill-opacity="0"/>
  </g>
  <g id="Layer_1">
    <path d="M31,21 L1,21 C0.448,21 0,20.552 0,20 L0,1 C0,0.448 0.448,0 1,0 L31,0 C31.552,0 32,0.448 32,1 L32,20 C32,20.552 31.552,21 31,21 z M2,30 L2,25 L30,25 L30,30 L2,30 z M1,32 L31,32 C31.552,32 32,31.552 32,31 L32,24 C32,23.448 31.552,23 31,23 L1,23 C0.448,23 0,23.448 0,24 L0,31 C0,31.552 0.448,32 1,32 z" fill="#000000"/>
  </g>
</svg>
