<svg xmlns="http://www.w3.org/2000/svg" viewBox="0 0 32 32">
    <path d="M20.785 27.941q0 .33.23.54c.155.142.36.217.57.21h.8a1 1 0 0 0 .56-.2.7.7 0 0 0 .23-.55v-12.54a.8.8 0 0 0-.23-.56.8.8 0 0 0-.56-.24h-.8a.8.8 0 0 0-.56.24.8.8 0 0 0-.24.56zm-3.6-12.54a.8.8 0 0 0-.22-.56.8.8 0 0 0-.57-.24h-.8a.7.7 0 0 0-.54.24.8.8 0 0 0-.21.56v12.54q0 .33.2.54t.55.21h.8q.32 0 .57-.2a.7.7 0 0 0 .23-.55zm-4.13-10.75q2.95-.04 5.94 0 0-.24.05-.47a1 1 0 0 0 0-.45v-.3a6 6 0 0 0-1.52-.23l-1.5-.02-1.54.02a6 6 0 0 0-1.5.23v.3q-.007.463.07.92m-1.85 10.75a.8.8 0 0 0-.23-.56.8.8 0 0 0-.56-.24h-.8a.7.7 0 0 0-.54.24.8.8 0 0 0-.22.56v12.54q0 .33.22.54a.7.7 0 0 0 .54.21h.8a1 1 0 0 0 .56-.2.7.7 0 0 0 .23-.55zm4.8-3.11q2.64-.04 5.27-.12a57 57 0 0 0 5.27-.4v17.09q0 1.29-.9 2.21a3 3 0 0 1-2.18.93H8.535q-1.29 0-2.22-.92a3 3 0 0 1-.93-2.22v-17.1q2.485.33 4.99.43 2.47.1 4.98.1zm13.32-5v1.4q-.75.42-2.51.67a44 44 0 0 1-3.8.39 62 62 0 0 1-3.94.15q-3.064.025-6.13 0a63 63 0 0 1-3.98-.15 48 48 0 0 1-3.76-.38 8 8 0 0 1-2.49-.67 5 5 0 0 1-.04-.71v-1.44q0-.36.04-.73.5-.3 1.45-.48a22 22 0 0 1 2-.32q1.048-.12 2.1-.18l1.6-.1a5.5 5.5 0 0 1 .23-2.62q.4-.94 1.22-1.4.8-.45 2-.6a25 25 0 0 1 2.7-.12q1.12 0 2.23.06c.685.021 1.362.16 2 .41q.86.37 1.4 1.12.51.75.51 2.14v.5q0 .24-.04.5.6.05 1.61.1 2.08.137 4.13.5.96.2 1.47.49z"/>
</svg>
