<svg viewBox="0 0 32 32" xmlns="http://www.w3.org/2000/svg" xml:space="preserve" fill-rule="evenodd" clip-rule="evenodd" stroke-linejoin="round" stroke-miterlimit="2"><path fill="none" d="M0 0h32v32H0z"/><path d="M3.53 0h12.63v.67h-.62q-1.45 0-1.97.3a2 2 0 0 0-.77.8q-.22.56-.22 2.63v12q0 3.27.5 4.31.49 1.11 1.63 1.79 1.17.7 2.86.7a6 6 0 0 0 3.39-.92q1.38-.83 2.1-2.46.7-1.54.7-5.45V4.4q0-1.6-.34-2.34a2 2 0 0 0-.9-.99 6 6 0 0 0-2.27-.4V0h8.47v.68h-.53q-1.01 0-1.7.4a2.5 2.5 0 0 0-.98 1.23q-.27.62-.24 2.1v9.32q0 4.31-.59 6.22-.55 1.94-2.77 3.51-2.15 1.63-6 1.63a12 12 0 0 1-4.9-.86 7 7 0 0 1-3.32-2.95q-.99-1.88-.99-4.9V4.4q0-2.1-.24-2.62a2 2 0 0 0-.8-.83A6 6 0 0 0 3.5.67zm-.86 28.5h26.66v3.51H2.7z"/></svg>