<?xml version="1.0" encoding="UTF-8"?>
<!DOCTYPE svg PUBLIC "-//W3C//DTD SVG 1.1//EN" "http://www.w3.org/Graphics/SVG/1.1/DTD/svg11.dtd">
<svg version="1.1" xmlns="http://www.w3.org/2000/svg" xmlns:xlink="http://www.w3.org/1999/xlink" x="0" y="0" width="107" height="128" viewBox="0, 0, 107, 128">
  <g id="Background">
    <rect x="0" y="0" width="107" height="128" fill="#000000" fill-opacity="0"/>
  </g>
  <g id="Layer_1">
    <path d="M13.103,17.5 C21.531,18.081 36.062,19.825 47.688,25.056 L47.688,110.5 C37.054,106.109 25.753,103.554 14.266,102.944 L12.522,102.944 Q7.291,102.072 7,96.259 L7,23.603 C7.291,20.116 10.197,17.5 13.103,17.5 M93.897,17.5 C96.803,17.5 99.709,20.116 100,23.603 L100,96.259 Q99.709,102.072 94.478,102.944 L92.734,102.944 C84.597,103.525 70.647,105.269 59.312,110.5 L59.312,25.056 C70.938,19.825 85.469,18.081 93.897,17.5" fill="#000000"/>
  </g>
</svg>
